<!DOCTYPE svg PUBLIC "-//W3C//DTD SVG 20010904//EN" "http://www.w3.org/TR/2001/REC-SVG-20010904/DTD/svg10.dtd">
<svg xmlns="http://www.w3.org/2000/svg" viewBox="0 0 28 28" preserveAspectRatio="xMidYMin">
  
  <desc>The sum of the first n cubes equals the square of the sum of the first n numbers</desc>
  <title>Cube sum</title>

<rect id="block" x="0" y="0" width="0.95" height="0.95" fill="blue" fill-opacity="0.5" />

<rect id="block" x="1" y="0" width="1.95" height="1.95" fill="magenta" fill-opacity="0.5" />
<rect id="block" x="0" y="1" width="1.95" height="1.95" fill="magenta" fill-opacity="0.5" />

<rect id="block" x="3" y="0" width="2.95" height="2.95" fill="blue" fill-opacity="0.5" />
<rect id="block" x="0" y="3" width="2.95" height="2.95" fill="blue" fill-opacity="0.5" />
<rect id="block" x="3" y="3" width="2.95" height="2.95" fill="blue" fill-opacity="0.5" />

<rect id="block" x="6" y="0" width="3.95" height="3.95" fill="magenta" fill-opacity="0.5" />
<rect id="block" x="0" y="6" width="3.95" height="3.95" fill="magenta" fill-opacity="0.5" />
<rect id="block" x="6" y="4" width="3.95" height="3.95" fill="magenta" fill-opacity="0.5" />
<rect id="block" x="4" y="6" width="3.95" height="3.95" fill="magenta" fill-opacity="0.5" />

<rect id="block" x="10" y="0" width="4.95" height="4.95" fill="blue" fill-opacity="0.5" />
<rect id="block" x="0" y="10" width="4.95" height="4.95" fill="blue" fill-opacity="0.5" />
<rect id="block" x="10" y="5" width="4.95" height="4.95" fill="blue" fill-opacity="0.5" />
<rect id="block" x="5" y="10" width="4.95" height="4.95" fill="blue" fill-opacity="0.5" />
<rect id="block" x="10" y="10" width="4.95" height="4.95" fill="blue" fill-opacity="0.5" />

<rect id="block" x="15" y="0" width="5.95" height="5.95" fill="magenta" fill-opacity="0.5" />
<rect id="block" x="0" y="15" width="5.95" height="5.95" fill="magenta" fill-opacity="0.5" />
<rect id="block" x="15" y="6" width="5.95" height="5.95" fill="magenta" fill-opacity="0.5" />
<rect id="block" x="6" y="15" width="5.95" height="5.95" fill="magenta" fill-opacity="0.5" />
<rect id="block" x="15" y="12" width="5.95" height="5.95" fill="magenta" fill-opacity="0.5" />
<rect id="block" x="12" y="15" width="5.95" height="5.95" fill="magenta" fill-opacity="0.5" />

<rect id="block" x="21" y="0" width="6.95" height="6.95" fill="blue" fill-opacity="0.5" />
<rect id="block" x="0" y="21" width="6.95" height="6.95" fill="blue" fill-opacity="0.5" />
<rect id="block" x="21" y="7" width="6.95" height="6.95" fill="blue" fill-opacity="0.5" />
<rect id="block" x="7" y="21" width="6.95" height="6.95" fill="blue" fill-opacity="0.5" />
<rect id="block" x="21" y="14" width="6.95" height="6.95" fill="blue" fill-opacity="0.5" />
<rect id="block" x="14" y="21" width="6.95" height="6.95" fill="blue" fill-opacity="0.5" />
<rect id="block" x="21" y="21" width="6.95" height="6.95" fill="blue" fill-opacity="0.5" />

</svg>
