<!DOCTYPE svg PUBLIC "-//W3C//DTD SVG 20010904//EN" "http://www.w3.org/TR/2001/REC-SVG-20010904/DTD/svg10.dtd">
<svg xmlns="http://www.w3.org/2000/svg" viewBox="0 0 7 7" preserveAspectRatio="xMidYMin">
  
  <desc>The sum of the first n cubes equals the square of the sum of the first n numbers</desc>
  <title>Cube sum</title>

<rect id="block" x="0" y="0" width="0.95" height="0.95" fill="magenta" fill-opacity="0.5" />

<rect id="block" x="1" y="1" width="0.95" height="0.95" fill="blue" fill-opacity="0.5" />
<rect id="block" x="1" y="0" width="0.95" height="0.95" fill="blue" fill-opacity="0.5" />
<rect id="block" x="0" y="1" width="0.95" height="0.95" fill="blue" fill-opacity="0.5" />

<rect id="block" x="2" y="2" width="0.95" height="0.95" fill="magenta" fill-opacity="0.5" />
<rect id="block" x="2" y="0" width="0.95" height="0.95" fill="magenta" fill-opacity="0.5" />
<rect id="block" x="0" y="2" width="0.95" height="0.95" fill="magenta" fill-opacity="0.5" />
<rect id="block" x="2" y="1" width="0.95" height="0.95" fill="magenta" fill-opacity="0.5" />
<rect id="block" x="1" y="2" width="0.95" height="0.95" fill="magenta" fill-opacity="0.5" />

<rect id="block" x="3" y="3" width="0.95" height="0.95" fill="blue" fill-opacity="0.5" />
<rect id="block" x="3" y="0" width="0.95" height="0.95" fill="blue" fill-opacity="0.5" />
<rect id="block" x="0" y="3" width="0.95" height="0.95" fill="blue" fill-opacity="0.5" />
<rect id="block" x="3" y="1" width="0.95" height="0.95" fill="blue" fill-opacity="0.5" />
<rect id="block" x="1" y="3" width="0.95" height="0.95" fill="blue" fill-opacity="0.5" />
<rect id="block" x="3" y="2" width="0.95" height="0.95" fill="blue" fill-opacity="0.5" />
<rect id="block" x="2" y="3" width="0.95" height="0.95" fill="blue" fill-opacity="0.5" />

<rect id="block" x="4" y="4" width="0.95" height="0.95" fill="magenta" fill-opacity="0.5" />
<rect id="block" x="4" y="0" width="0.95" height="0.95" fill="magenta" fill-opacity="0.5" />
<rect id="block" x="0" y="4" width="0.95" height="0.95" fill="magenta" fill-opacity="0.5" />
<rect id="block" x="4" y="1" width="0.95" height="0.95" fill="magenta" fill-opacity="0.5" />
<rect id="block" x="1" y="4" width="0.95" height="0.95" fill="magenta" fill-opacity="0.5" />
<rect id="block" x="4" y="2" width="0.95" height="0.95" fill="magenta" fill-opacity="0.5" />
<rect id="block" x="2" y="4" width="0.95" height="0.95" fill="magenta" fill-opacity="0.5" />
<rect id="block" x="4" y="3" width="0.95" height="0.95" fill="magenta" fill-opacity="0.5" />
<rect id="block" x="3" y="4" width="0.95" height="0.95" fill="magenta" fill-opacity="0.5" />

<rect id="block" x="5" y="5" width="0.95" height="0.95" fill="blue" fill-opacity="0.5" />
<rect id="block" x="5" y="0" width="0.95" height="0.95" fill="blue" fill-opacity="0.5" />
<rect id="block" x="0" y="5" width="0.95" height="0.95" fill="blue" fill-opacity="0.5" />
<rect id="block" x="5" y="1" width="0.95" height="0.95" fill="blue" fill-opacity="0.5" />
<rect id="block" x="1" y="5" width="0.95" height="0.95" fill="blue" fill-opacity="0.5" />
<rect id="block" x="5" y="2" width="0.95" height="0.95" fill="blue" fill-opacity="0.5" />
<rect id="block" x="2" y="5" width="0.95" height="0.95" fill="blue" fill-opacity="0.5" />
<rect id="block" x="5" y="3" width="0.95" height="0.95" fill="blue" fill-opacity="0.5" />
<rect id="block" x="3" y="5" width="0.95" height="0.95" fill="blue" fill-opacity="0.5" />
<rect id="block" x="5" y="4" width="0.95" height="0.95" fill="blue" fill-opacity="0.5" />
<rect id="block" x="4" y="5" width="0.95" height="0.95" fill="blue" fill-opacity="0.5" />

<rect id="block" x="6" y="6" width="0.95" height="0.95" fill="magenta" fill-opacity="0.5" />
<rect id="block" x="6" y="0" width="0.95" height="0.95" fill="magenta" fill-opacity="0.5" />
<rect id="block" x="0" y="6" width="0.95" height="0.95" fill="magenta" fill-opacity="0.5" />
<rect id="block" x="6" y="1" width="0.95" height="0.95" fill="magenta" fill-opacity="0.5" />
<rect id="block" x="1" y="6" width="0.95" height="0.95" fill="magenta" fill-opacity="0.5" />
<rect id="block" x="6" y="2" width="0.95" height="0.95" fill="magenta" fill-opacity="0.5" />
<rect id="block" x="2" y="6" width="0.95" height="0.95" fill="magenta" fill-opacity="0.5" />
<rect id="block" x="6" y="3" width="0.95" height="0.95" fill="magenta" fill-opacity="0.5" />
<rect id="block" x="3" y="6" width="0.95" height="0.95" fill="magenta" fill-opacity="0.5" />
<rect id="block" x="6" y="4" width="0.95" height="0.95" fill="magenta" fill-opacity="0.5" />
<rect id="block" x="4" y="6" width="0.95" height="0.95" fill="magenta" fill-opacity="0.5" />
<rect id="block" x="6" y="5" width="0.95" height="0.95" fill="magenta" fill-opacity="0.5" />
<rect id="block" x="5" y="6" width="0.95" height="0.95" fill="magenta" fill-opacity="0.5" />

</svg>
