<!DOCTYPE svg PUBLIC "-//W3C//DTD SVG 20010904//EN" "http://www.w3.org/TR/2001/REC-SVG-20010904/DTD/svg10.dtd">
<svg xmlns="http://www.w3.org/2000/svg" viewBox="0 0 15 15" preserveAspectRatio="xMidYMin">
  
  <desc>The sum of the first n odd numbers equals n squared</desc>
  <title>Odd sum</title>

<rect id="block" x="0" y="0" width="0.95" height="0.95" fill="magenta" fill-opacity="0.5" />

<rect id="block" x="1" y="1" width="0.95" height="0.95" fill="blue" fill-opacity="0.5" />
<rect id="block" x="1" y="0" width="0.95" height="0.95" fill="blue" fill-opacity="0.5" />
<rect id="block" x="0" y="1" width="0.95" height="0.95" fill="blue" fill-opacity="0.5" />

<rect id="block" x="2" y="2" width="0.95" height="0.95" fill="magenta" fill-opacity="0.5" />
<rect id="block" x="2" y="0" width="0.95" height="0.95" fill="magenta" fill-opacity="0.5" />
<rect id="block" x="0" y="2" width="0.95" height="0.95" fill="magenta" fill-opacity="0.5" />
<rect id="block" x="2" y="1" width="0.95" height="0.95" fill="magenta" fill-opacity="0.5" />
<rect id="block" x="1" y="2" width="0.95" height="0.95" fill="magenta" fill-opacity="0.5" />

<rect id="block" x="3" y="3" width="0.95" height="0.95" fill="blue" fill-opacity="0.5" />
<rect id="block" x="3" y="0" width="0.95" height="0.95" fill="blue" fill-opacity="0.5" />
<rect id="block" x="0" y="3" width="0.95" height="0.95" fill="blue" fill-opacity="0.5" />
<rect id="block" x="3" y="1" width="0.95" height="0.95" fill="blue" fill-opacity="0.5" />
<rect id="block" x="1" y="3" width="0.95" height="0.95" fill="blue" fill-opacity="0.5" />
<rect id="block" x="3" y="2" width="0.95" height="0.95" fill="blue" fill-opacity="0.5" />
<rect id="block" x="2" y="3" width="0.95" height="0.95" fill="blue" fill-opacity="0.5" />

<rect id="block" x="4" y="4" width="0.95" height="0.95" fill="magenta" fill-opacity="0.5" />
<rect id="block" x="4" y="0" width="0.95" height="0.95" fill="magenta" fill-opacity="0.5" />
<rect id="block" x="0" y="4" width="0.95" height="0.95" fill="magenta" fill-opacity="0.5" />
<rect id="block" x="4" y="1" width="0.95" height="0.95" fill="magenta" fill-opacity="0.5" />
<rect id="block" x="1" y="4" width="0.95" height="0.95" fill="magenta" fill-opacity="0.5" />
<rect id="block" x="4" y="2" width="0.95" height="0.95" fill="magenta" fill-opacity="0.5" />
<rect id="block" x="2" y="4" width="0.95" height="0.95" fill="magenta" fill-opacity="0.5" />
<rect id="block" x="4" y="3" width="0.95" height="0.95" fill="magenta" fill-opacity="0.5" />
<rect id="block" x="3" y="4" width="0.95" height="0.95" fill="magenta" fill-opacity="0.5" />

<rect id="block" x="5" y="5" width="0.95" height="0.95" fill="blue" fill-opacity="0.5" />
<rect id="block" x="5" y="0" width="0.95" height="0.95" fill="blue" fill-opacity="0.5" />
<rect id="block" x="0" y="5" width="0.95" height="0.95" fill="blue" fill-opacity="0.5" />
<rect id="block" x="5" y="1" width="0.95" height="0.95" fill="blue" fill-opacity="0.5" />
<rect id="block" x="1" y="5" width="0.95" height="0.95" fill="blue" fill-opacity="0.5" />
<rect id="block" x="5" y="2" width="0.95" height="0.95" fill="blue" fill-opacity="0.5" />
<rect id="block" x="2" y="5" width="0.95" height="0.95" fill="blue" fill-opacity="0.5" />
<rect id="block" x="5" y="3" width="0.95" height="0.95" fill="blue" fill-opacity="0.5" />
<rect id="block" x="3" y="5" width="0.95" height="0.95" fill="blue" fill-opacity="0.5" />
<rect id="block" x="5" y="4" width="0.95" height="0.95" fill="blue" fill-opacity="0.5" />
<rect id="block" x="4" y="5" width="0.95" height="0.95" fill="blue" fill-opacity="0.5" />

<rect id="block" x="6" y="6" width="0.95" height="0.95" fill="magenta" fill-opacity="0.5" />
<rect id="block" x="6" y="0" width="0.95" height="0.95" fill="magenta" fill-opacity="0.5" />
<rect id="block" x="0" y="6" width="0.95" height="0.95" fill="magenta" fill-opacity="0.5" />
<rect id="block" x="6" y="1" width="0.95" height="0.95" fill="magenta" fill-opacity="0.5" />
<rect id="block" x="1" y="6" width="0.95" height="0.95" fill="magenta" fill-opacity="0.5" />
<rect id="block" x="6" y="2" width="0.95" height="0.95" fill="magenta" fill-opacity="0.5" />
<rect id="block" x="2" y="6" width="0.95" height="0.95" fill="magenta" fill-opacity="0.5" />
<rect id="block" x="6" y="3" width="0.95" height="0.95" fill="magenta" fill-opacity="0.5" />
<rect id="block" x="3" y="6" width="0.95" height="0.95" fill="magenta" fill-opacity="0.5" />
<rect id="block" x="6" y="4" width="0.95" height="0.95" fill="magenta" fill-opacity="0.5" />
<rect id="block" x="4" y="6" width="0.95" height="0.95" fill="magenta" fill-opacity="0.5" />
<rect id="block" x="6" y="5" width="0.95" height="0.95" fill="magenta" fill-opacity="0.5" />
<rect id="block" x="5" y="6" width="0.95" height="0.95" fill="magenta" fill-opacity="0.5" />

<rect id="block" x="7" y="7" width="0.95" height="0.95" fill="blue" fill-opacity="0.5" />
<rect id="block" x="7" y="0" width="0.95" height="0.95" fill="blue" fill-opacity="0.5" />
<rect id="block" x="0" y="7" width="0.95" height="0.95" fill="blue" fill-opacity="0.5" />
<rect id="block" x="7" y="1" width="0.95" height="0.95" fill="blue" fill-opacity="0.5" />
<rect id="block" x="1" y="7" width="0.95" height="0.95" fill="blue" fill-opacity="0.5" />
<rect id="block" x="7" y="2" width="0.95" height="0.95" fill="blue" fill-opacity="0.5" />
<rect id="block" x="2" y="7" width="0.95" height="0.95" fill="blue" fill-opacity="0.5" />
<rect id="block" x="7" y="3" width="0.95" height="0.95" fill="blue" fill-opacity="0.5" />
<rect id="block" x="3" y="7" width="0.95" height="0.95" fill="blue" fill-opacity="0.5" />
<rect id="block" x="7" y="4" width="0.95" height="0.95" fill="blue" fill-opacity="0.5" />
<rect id="block" x="4" y="7" width="0.95" height="0.95" fill="blue" fill-opacity="0.5" />
<rect id="block" x="7" y="5" width="0.95" height="0.95" fill="blue" fill-opacity="0.5" />
<rect id="block" x="5" y="7" width="0.95" height="0.95" fill="blue" fill-opacity="0.5" />
<rect id="block" x="7" y="6" width="0.95" height="0.95" fill="blue" fill-opacity="0.5" />
<rect id="block" x="6" y="7" width="0.95" height="0.95" fill="blue" fill-opacity="0.5" />

<rect id="block" x="8" y="8" width="0.95" height="0.95" fill="magenta" fill-opacity="0.5" />
<rect id="block" x="8" y="0" width="0.95" height="0.95" fill="magenta" fill-opacity="0.5" />
<rect id="block" x="0" y="8" width="0.95" height="0.95" fill="magenta" fill-opacity="0.5" />
<rect id="block" x="8" y="1" width="0.95" height="0.95" fill="magenta" fill-opacity="0.5" />
<rect id="block" x="1" y="8" width="0.95" height="0.95" fill="magenta" fill-opacity="0.5" />
<rect id="block" x="8" y="2" width="0.95" height="0.95" fill="magenta" fill-opacity="0.5" />
<rect id="block" x="2" y="8" width="0.95" height="0.95" fill="magenta" fill-opacity="0.5" />
<rect id="block" x="8" y="3" width="0.95" height="0.95" fill="magenta" fill-opacity="0.5" />
<rect id="block" x="3" y="8" width="0.95" height="0.95" fill="magenta" fill-opacity="0.5" />
<rect id="block" x="8" y="4" width="0.95" height="0.95" fill="magenta" fill-opacity="0.5" />
<rect id="block" x="4" y="8" width="0.95" height="0.95" fill="magenta" fill-opacity="0.5" />
<rect id="block" x="8" y="5" width="0.95" height="0.95" fill="magenta" fill-opacity="0.5" />
<rect id="block" x="5" y="8" width="0.95" height="0.95" fill="magenta" fill-opacity="0.5" />
<rect id="block" x="8" y="6" width="0.95" height="0.95" fill="magenta" fill-opacity="0.5" />
<rect id="block" x="6" y="8" width="0.95" height="0.95" fill="magenta" fill-opacity="0.5" />
<rect id="block" x="8" y="7" width="0.95" height="0.95" fill="magenta" fill-opacity="0.5" />
<rect id="block" x="7" y="8" width="0.95" height="0.95" fill="magenta" fill-opacity="0.5" />

<rect id="block" x="9" y="9" width="0.95" height="0.95" fill="blue" fill-opacity="0.5" />
<rect id="block" x="9" y="0" width="0.95" height="0.95" fill="blue" fill-opacity="0.5" />
<rect id="block" x="0" y="9" width="0.95" height="0.95" fill="blue" fill-opacity="0.5" />
<rect id="block" x="9" y="1" width="0.95" height="0.95" fill="blue" fill-opacity="0.5" />
<rect id="block" x="1" y="9" width="0.95" height="0.95" fill="blue" fill-opacity="0.5" />
<rect id="block" x="9" y="2" width="0.95" height="0.95" fill="blue" fill-opacity="0.5" />
<rect id="block" x="2" y="9" width="0.95" height="0.95" fill="blue" fill-opacity="0.5" />
<rect id="block" x="9" y="3" width="0.95" height="0.95" fill="blue" fill-opacity="0.5" />
<rect id="block" x="3" y="9" width="0.95" height="0.95" fill="blue" fill-opacity="0.5" />
<rect id="block" x="9" y="4" width="0.95" height="0.95" fill="blue" fill-opacity="0.5" />
<rect id="block" x="4" y="9" width="0.95" height="0.95" fill="blue" fill-opacity="0.5" />
<rect id="block" x="9" y="5" width="0.95" height="0.95" fill="blue" fill-opacity="0.5" />
<rect id="block" x="5" y="9" width="0.95" height="0.95" fill="blue" fill-opacity="0.5" />
<rect id="block" x="9" y="6" width="0.95" height="0.95" fill="blue" fill-opacity="0.5" />
<rect id="block" x="6" y="9" width="0.95" height="0.95" fill="blue" fill-opacity="0.5" />
<rect id="block" x="9" y="7" width="0.95" height="0.95" fill="blue" fill-opacity="0.5" />
<rect id="block" x="7" y="9" width="0.95" height="0.95" fill="blue" fill-opacity="0.5" />
<rect id="block" x="9" y="8" width="0.95" height="0.95" fill="blue" fill-opacity="0.5" />
<rect id="block" x="8" y="9" width="0.95" height="0.95" fill="blue" fill-opacity="0.5" />

<rect id="block" x="10" y="10" width="0.95" height="0.95" fill="magenta" fill-opacity="0.5" />
<rect id="block" x="10" y="0" width="0.95" height="0.95" fill="magenta" fill-opacity="0.5" />
<rect id="block" x="0" y="10" width="0.95" height="0.95" fill="magenta" fill-opacity="0.5" />
<rect id="block" x="10" y="1" width="0.95" height="0.95" fill="magenta" fill-opacity="0.5" />
<rect id="block" x="1" y="10" width="0.95" height="0.95" fill="magenta" fill-opacity="0.5" />
<rect id="block" x="10" y="2" width="0.95" height="0.95" fill="magenta" fill-opacity="0.5" />
<rect id="block" x="2" y="10" width="0.95" height="0.95" fill="magenta" fill-opacity="0.5" />
<rect id="block" x="10" y="3" width="0.95" height="0.95" fill="magenta" fill-opacity="0.5" />
<rect id="block" x="3" y="10" width="0.95" height="0.95" fill="magenta" fill-opacity="0.5" />
<rect id="block" x="10" y="4" width="0.95" height="0.95" fill="magenta" fill-opacity="0.5" />
<rect id="block" x="4" y="10" width="0.95" height="0.95" fill="magenta" fill-opacity="0.5" />
<rect id="block" x="10" y="5" width="0.95" height="0.95" fill="magenta" fill-opacity="0.5" />
<rect id="block" x="5" y="10" width="0.95" height="0.95" fill="magenta" fill-opacity="0.5" />
<rect id="block" x="10" y="6" width="0.95" height="0.95" fill="magenta" fill-opacity="0.5" />
<rect id="block" x="6" y="10" width="0.95" height="0.95" fill="magenta" fill-opacity="0.5" />
<rect id="block" x="10" y="7" width="0.95" height="0.95" fill="magenta" fill-opacity="0.5" />
<rect id="block" x="7" y="10" width="0.95" height="0.95" fill="magenta" fill-opacity="0.5" />
<rect id="block" x="10" y="8" width="0.95" height="0.95" fill="magenta" fill-opacity="0.5" />
<rect id="block" x="8" y="10" width="0.95" height="0.95" fill="magenta" fill-opacity="0.5" />
<rect id="block" x="10" y="9" width="0.95" height="0.95" fill="magenta" fill-opacity="0.5" />
<rect id="block" x="9" y="10" width="0.95" height="0.95" fill="magenta" fill-opacity="0.5" />

<rect id="block" x="11" y="11" width="0.95" height="0.95" fill="blue" fill-opacity="0.5" />
<rect id="block" x="11" y="0" width="0.95" height="0.95" fill="blue" fill-opacity="0.5" />
<rect id="block" x="0" y="11" width="0.95" height="0.95" fill="blue" fill-opacity="0.5" />
<rect id="block" x="11" y="1" width="0.95" height="0.95" fill="blue" fill-opacity="0.5" />
<rect id="block" x="1" y="11" width="0.95" height="0.95" fill="blue" fill-opacity="0.5" />
<rect id="block" x="11" y="2" width="0.95" height="0.95" fill="blue" fill-opacity="0.5" />
<rect id="block" x="2" y="11" width="0.95" height="0.95" fill="blue" fill-opacity="0.5" />
<rect id="block" x="11" y="3" width="0.95" height="0.95" fill="blue" fill-opacity="0.5" />
<rect id="block" x="3" y="11" width="0.95" height="0.95" fill="blue" fill-opacity="0.5" />
<rect id="block" x="11" y="4" width="0.95" height="0.95" fill="blue" fill-opacity="0.5" />
<rect id="block" x="4" y="11" width="0.95" height="0.95" fill="blue" fill-opacity="0.5" />
<rect id="block" x="11" y="5" width="0.95" height="0.95" fill="blue" fill-opacity="0.5" />
<rect id="block" x="5" y="11" width="0.95" height="0.95" fill="blue" fill-opacity="0.5" />
<rect id="block" x="11" y="6" width="0.95" height="0.95" fill="blue" fill-opacity="0.5" />
<rect id="block" x="6" y="11" width="0.95" height="0.95" fill="blue" fill-opacity="0.5" />
<rect id="block" x="11" y="7" width="0.95" height="0.95" fill="blue" fill-opacity="0.5" />
<rect id="block" x="7" y="11" width="0.95" height="0.95" fill="blue" fill-opacity="0.5" />
<rect id="block" x="11" y="8" width="0.95" height="0.95" fill="blue" fill-opacity="0.5" />
<rect id="block" x="8" y="11" width="0.95" height="0.95" fill="blue" fill-opacity="0.5" />
<rect id="block" x="11" y="9" width="0.95" height="0.95" fill="blue" fill-opacity="0.5" />
<rect id="block" x="9" y="11" width="0.95" height="0.95" fill="blue" fill-opacity="0.5" />
<rect id="block" x="11" y="10" width="0.95" height="0.95" fill="blue" fill-opacity="0.5" />
<rect id="block" x="10" y="11" width="0.95" height="0.95" fill="blue" fill-opacity="0.5" />

<rect id="block" x="12" y="12" width="0.95" height="0.95" fill="magenta" fill-opacity="0.5" />
<rect id="block" x="12" y="0" width="0.95" height="0.95" fill="magenta" fill-opacity="0.5" />
<rect id="block" x="0" y="12" width="0.95" height="0.95" fill="magenta" fill-opacity="0.5" />
<rect id="block" x="12" y="1" width="0.95" height="0.95" fill="magenta" fill-opacity="0.5" />
<rect id="block" x="1" y="12" width="0.95" height="0.95" fill="magenta" fill-opacity="0.5" />
<rect id="block" x="12" y="2" width="0.95" height="0.95" fill="magenta" fill-opacity="0.5" />
<rect id="block" x="2" y="12" width="0.95" height="0.95" fill="magenta" fill-opacity="0.5" />
<rect id="block" x="12" y="3" width="0.95" height="0.95" fill="magenta" fill-opacity="0.5" />
<rect id="block" x="3" y="12" width="0.95" height="0.95" fill="magenta" fill-opacity="0.5" />
<rect id="block" x="12" y="4" width="0.95" height="0.95" fill="magenta" fill-opacity="0.5" />
<rect id="block" x="4" y="12" width="0.95" height="0.95" fill="magenta" fill-opacity="0.5" />
<rect id="block" x="12" y="5" width="0.95" height="0.95" fill="magenta" fill-opacity="0.5" />
<rect id="block" x="5" y="12" width="0.95" height="0.95" fill="magenta" fill-opacity="0.5" />
<rect id="block" x="12" y="6" width="0.95" height="0.95" fill="magenta" fill-opacity="0.5" />
<rect id="block" x="6" y="12" width="0.95" height="0.95" fill="magenta" fill-opacity="0.5" />
<rect id="block" x="12" y="7" width="0.95" height="0.95" fill="magenta" fill-opacity="0.5" />
<rect id="block" x="7" y="12" width="0.95" height="0.95" fill="magenta" fill-opacity="0.5" />
<rect id="block" x="12" y="8" width="0.95" height="0.95" fill="magenta" fill-opacity="0.5" />
<rect id="block" x="8" y="12" width="0.95" height="0.95" fill="magenta" fill-opacity="0.5" />
<rect id="block" x="12" y="9" width="0.95" height="0.95" fill="magenta" fill-opacity="0.5" />
<rect id="block" x="9" y="12" width="0.95" height="0.95" fill="magenta" fill-opacity="0.5" />
<rect id="block" x="12" y="10" width="0.95" height="0.95" fill="magenta" fill-opacity="0.5" />
<rect id="block" x="10" y="12" width="0.95" height="0.95" fill="magenta" fill-opacity="0.5" />
<rect id="block" x="12" y="11" width="0.95" height="0.95" fill="magenta" fill-opacity="0.5" />
<rect id="block" x="11" y="12" width="0.95" height="0.95" fill="magenta" fill-opacity="0.5" />

<rect id="block" x="13" y="13" width="0.95" height="0.95" fill="blue" fill-opacity="0.5" />
<rect id="block" x="13" y="0" width="0.95" height="0.95" fill="blue" fill-opacity="0.5" />
<rect id="block" x="0" y="13" width="0.95" height="0.95" fill="blue" fill-opacity="0.5" />
<rect id="block" x="13" y="1" width="0.95" height="0.95" fill="blue" fill-opacity="0.5" />
<rect id="block" x="1" y="13" width="0.95" height="0.95" fill="blue" fill-opacity="0.5" />
<rect id="block" x="13" y="2" width="0.95" height="0.95" fill="blue" fill-opacity="0.5" />
<rect id="block" x="2" y="13" width="0.95" height="0.95" fill="blue" fill-opacity="0.5" />
<rect id="block" x="13" y="3" width="0.95" height="0.95" fill="blue" fill-opacity="0.5" />
<rect id="block" x="3" y="13" width="0.95" height="0.95" fill="blue" fill-opacity="0.5" />
<rect id="block" x="13" y="4" width="0.95" height="0.95" fill="blue" fill-opacity="0.5" />
<rect id="block" x="4" y="13" width="0.95" height="0.95" fill="blue" fill-opacity="0.5" />
<rect id="block" x="13" y="5" width="0.95" height="0.95" fill="blue" fill-opacity="0.5" />
<rect id="block" x="5" y="13" width="0.95" height="0.95" fill="blue" fill-opacity="0.5" />
<rect id="block" x="13" y="6" width="0.95" height="0.95" fill="blue" fill-opacity="0.5" />
<rect id="block" x="6" y="13" width="0.95" height="0.95" fill="blue" fill-opacity="0.5" />
<rect id="block" x="13" y="7" width="0.95" height="0.95" fill="blue" fill-opacity="0.5" />
<rect id="block" x="7" y="13" width="0.95" height="0.95" fill="blue" fill-opacity="0.5" />
<rect id="block" x="13" y="8" width="0.95" height="0.95" fill="blue" fill-opacity="0.5" />
<rect id="block" x="8" y="13" width="0.95" height="0.95" fill="blue" fill-opacity="0.5" />
<rect id="block" x="13" y="9" width="0.95" height="0.95" fill="blue" fill-opacity="0.5" />
<rect id="block" x="9" y="13" width="0.95" height="0.95" fill="blue" fill-opacity="0.5" />
<rect id="block" x="13" y="10" width="0.95" height="0.95" fill="blue" fill-opacity="0.5" />
<rect id="block" x="10" y="13" width="0.95" height="0.95" fill="blue" fill-opacity="0.5" />
<rect id="block" x="13" y="11" width="0.95" height="0.95" fill="blue" fill-opacity="0.5" />
<rect id="block" x="11" y="13" width="0.95" height="0.95" fill="blue" fill-opacity="0.5" />
<rect id="block" x="13" y="12" width="0.95" height="0.95" fill="blue" fill-opacity="0.5" />
<rect id="block" x="12" y="13" width="0.95" height="0.95" fill="blue" fill-opacity="0.5" />

<rect id="block" x="14" y="14" width="0.95" height="0.95" fill="magenta" fill-opacity="0.5" />
<rect id="block" x="14" y="0" width="0.95" height="0.95" fill="magenta" fill-opacity="0.5" />
<rect id="block" x="0" y="14" width="0.95" height="0.95" fill="magenta" fill-opacity="0.5" />
<rect id="block" x="14" y="1" width="0.95" height="0.95" fill="magenta" fill-opacity="0.5" />
<rect id="block" x="1" y="14" width="0.95" height="0.95" fill="magenta" fill-opacity="0.5" />
<rect id="block" x="14" y="2" width="0.95" height="0.95" fill="magenta" fill-opacity="0.5" />
<rect id="block" x="2" y="14" width="0.95" height="0.95" fill="magenta" fill-opacity="0.5" />
<rect id="block" x="14" y="3" width="0.95" height="0.95" fill="magenta" fill-opacity="0.5" />
<rect id="block" x="3" y="14" width="0.95" height="0.95" fill="magenta" fill-opacity="0.5" />
<rect id="block" x="14" y="4" width="0.95" height="0.95" fill="magenta" fill-opacity="0.5" />
<rect id="block" x="4" y="14" width="0.95" height="0.95" fill="magenta" fill-opacity="0.5" />
<rect id="block" x="14" y="5" width="0.95" height="0.95" fill="magenta" fill-opacity="0.5" />
<rect id="block" x="5" y="14" width="0.95" height="0.95" fill="magenta" fill-opacity="0.5" />
<rect id="block" x="14" y="6" width="0.95" height="0.95" fill="magenta" fill-opacity="0.5" />
<rect id="block" x="6" y="14" width="0.95" height="0.95" fill="magenta" fill-opacity="0.5" />
<rect id="block" x="14" y="7" width="0.95" height="0.95" fill="magenta" fill-opacity="0.5" />
<rect id="block" x="7" y="14" width="0.95" height="0.95" fill="magenta" fill-opacity="0.5" />
<rect id="block" x="14" y="8" width="0.95" height="0.95" fill="magenta" fill-opacity="0.5" />
<rect id="block" x="8" y="14" width="0.95" height="0.95" fill="magenta" fill-opacity="0.5" />
<rect id="block" x="14" y="9" width="0.95" height="0.95" fill="magenta" fill-opacity="0.5" />
<rect id="block" x="9" y="14" width="0.95" height="0.95" fill="magenta" fill-opacity="0.5" />
<rect id="block" x="14" y="10" width="0.95" height="0.95" fill="magenta" fill-opacity="0.5" />
<rect id="block" x="10" y="14" width="0.95" height="0.95" fill="magenta" fill-opacity="0.5" />
<rect id="block" x="14" y="11" width="0.95" height="0.95" fill="magenta" fill-opacity="0.5" />
<rect id="block" x="11" y="14" width="0.95" height="0.95" fill="magenta" fill-opacity="0.5" />
<rect id="block" x="14" y="12" width="0.95" height="0.95" fill="magenta" fill-opacity="0.5" />
<rect id="block" x="12" y="14" width="0.95" height="0.95" fill="magenta" fill-opacity="0.5" />
<rect id="block" x="14" y="13" width="0.95" height="0.95" fill="magenta" fill-opacity="0.5" />
<rect id="block" x="13" y="14" width="0.95" height="0.95" fill="magenta" fill-opacity="0.5" />

</svg>
